<mxfile host="app.diagrams.net" modified="2023-04-20T15:58:55.351Z" agent="Mozilla/5.0 (Macintosh; Intel Mac OS X 10_15_7) AppleWebKit/537.36 (KHTML, like Gecko) Chrome/111.0.0.0 Safari/537.36" etag="taHnpH38mYBhlaZgE4aP" version="21.1.5" type="device">
  <diagram name="Page-1" id="929967ad-93f9-6ef4-fab6-5d389245f69c">
    <mxGraphModel dx="2946.5" dy="699" grid="1" gridSize="10" guides="1" tooltips="1" connect="1" arrows="1" fold="1" page="1" pageScale="1.5" pageWidth="1169" pageHeight="826" background="none" math="0" shadow="0">
      <root>
        <mxCell id="0" style=";html=1;" />
        <mxCell id="1" style=";html=1;" parent="0" />
        <mxCell id="1672d66443f91eb5-1" value="" style="html=1;strokeWidth=1;shape=mxgraph.sysml.package;html=1;overflow=fill;whiteSpace=wrap;fillColor=none;gradientColor=none;fontSize=12;align=center;labelX=327.64;" parent="1" vertex="1">
          <mxGeometry x="210" y="510" width="1120" height="795" as="geometry" />
        </mxCell>
        <mxCell id="1672d66443f91eb5-21" style="edgeStyle=none;rounded=0;html=1;dashed=1;endArrow=none;endFill=0;jettySize=auto;orthogonalLoop=1;" parent="1" source="1672d66443f91eb5-6" edge="1">
          <mxGeometry relative="1" as="geometry">
            <mxPoint x="1066.583333333333" y="655" as="targetPoint" />
          </mxGeometry>
        </mxCell>
        <mxCell id="1672d66443f91eb5-16" style="edgeStyle=orthogonalEdgeStyle;rounded=0;html=1;endArrow=circlePlus;endFill=0;jettySize=auto;orthogonalLoop=1;entryX=0.25;entryY=1;" parent="1" target="1672d66443f91eb5-5" edge="1">
          <mxGeometry relative="1" as="geometry">
            <Array as="points">
              <mxPoint x="627" y="635" />
              <mxPoint x="677" y="635" />
            </Array>
            <mxPoint x="627.1000000000004" y="655" as="sourcePoint" />
          </mxGeometry>
        </mxCell>
        <mxCell id="1672d66443f91eb5-17" style="edgeStyle=orthogonalEdgeStyle;rounded=0;html=1;endArrow=circlePlus;endFill=0;jettySize=auto;orthogonalLoop=1;entryX=0.5;entryY=1;" parent="1" target="1672d66443f91eb5-5" edge="1">
          <mxGeometry relative="1" as="geometry">
            <Array as="points">
              <mxPoint x="817" y="635" />
              <mxPoint x="717" y="635" />
            </Array>
            <mxPoint x="817.1000000000004" y="655" as="sourcePoint" />
          </mxGeometry>
        </mxCell>
        <mxCell id="1672d66443f91eb5-18" style="edgeStyle=orthogonalEdgeStyle;rounded=0;html=1;endArrow=circlePlus;endFill=0;jettySize=auto;orthogonalLoop=1;entryX=0.75;entryY=1;" parent="1" target="1672d66443f91eb5-5" edge="1">
          <mxGeometry relative="1" as="geometry">
            <Array as="points">
              <mxPoint x="1017" y="625" />
              <mxPoint x="757" y="625" />
            </Array>
            <mxPoint x="1017.1000000000004" y="655" as="sourcePoint" />
          </mxGeometry>
        </mxCell>
        <mxCell id="1672d66443f91eb5-22" style="edgeStyle=none;rounded=0;html=1;dashed=1;endArrow=none;endFill=0;jettySize=auto;orthogonalLoop=1;" parent="1" target="1672d66443f91eb5-3" edge="1">
          <mxGeometry relative="1" as="geometry">
            <mxPoint x="1017" y="655" as="sourcePoint" />
          </mxGeometry>
        </mxCell>
        <mxCell id="1672d66443f91eb5-14" style="edgeStyle=orthogonalEdgeStyle;rounded=0;html=1;endArrow=circlePlus;endFill=0;jettySize=auto;orthogonalLoop=1;" parent="1" target="1672d66443f91eb5-4" edge="1">
          <mxGeometry relative="1" as="geometry">
            <Array as="points">
              <mxPoint x="477" y="755" />
              <mxPoint x="477" y="755" />
            </Array>
            <mxPoint x="477.10000000000036" y="785" as="sourcePoint" />
          </mxGeometry>
        </mxCell>
        <mxCell id="1672d66443f91eb5-19" style="rounded=0;html=1;endArrow=none;endFill=0;jettySize=auto;orthogonalLoop=1;dashed=1;" parent="1" target="1672d66443f91eb5-9" edge="1">
          <mxGeometry relative="1" as="geometry">
            <mxPoint x="951.545454545455" y="825" as="sourcePoint" />
          </mxGeometry>
        </mxCell>
        <mxCell id="1672d66443f91eb5-20" style="edgeStyle=none;rounded=0;html=1;dashed=1;endArrow=none;endFill=0;jettySize=auto;orthogonalLoop=1;" parent="1" target="1672d66443f91eb5-6" edge="1">
          <mxGeometry relative="1" as="geometry">
            <mxPoint x="1187" y="825" as="sourcePoint" />
          </mxGeometry>
        </mxCell>
        <mxCell id="1672d66443f91eb5-23" value="Airline UML Diagram" style="text;strokeColor=none;fillColor=none;html=1;fontSize=24;fontStyle=1;verticalAlign=middle;align=center;" parent="1" vertex="1">
          <mxGeometry x="-40" y="530" width="1510" height="40" as="geometry" />
        </mxCell>
        <mxCell id="2Du9RHtdQTBFCctuUeps-1" value="" style="whiteSpace=wrap;html=1;aspect=fixed;" vertex="1" parent="1">
          <mxGeometry x="430" y="600" width="260" height="260" as="geometry" />
        </mxCell>
        <mxCell id="2Du9RHtdQTBFCctuUeps-2" value="" style="whiteSpace=wrap;html=1;aspect=fixed;" vertex="1" parent="1">
          <mxGeometry x="750" y="600" width="260" height="260" as="geometry" />
        </mxCell>
        <mxCell id="2Du9RHtdQTBFCctuUeps-3" value="Passengers" style="text;html=1;strokeColor=none;fillColor=none;align=center;verticalAlign=middle;whiteSpace=wrap;rounded=0;" vertex="1" parent="1">
          <mxGeometry x="475" y="605" width="170" height="30" as="geometry" />
        </mxCell>
        <mxCell id="2Du9RHtdQTBFCctuUeps-4" value="Flights" style="text;html=1;strokeColor=none;fillColor=none;align=center;verticalAlign=middle;whiteSpace=wrap;rounded=0;" vertex="1" parent="1">
          <mxGeometry x="795" y="610" width="170" height="30" as="geometry" />
        </mxCell>
        <mxCell id="2Du9RHtdQTBFCctuUeps-6" value="&lt;ul&gt;&lt;li&gt;id&amp;nbsp;&lt;/li&gt;&lt;li&gt;name&lt;/li&gt;&lt;li&gt;phone number&lt;/li&gt;&lt;li&gt;email (combined &quot;contact&quot; class??)&lt;/li&gt;&lt;li&gt;flights&lt;/li&gt;&lt;/ul&gt;" style="text;html=1;strokeColor=none;fillColor=none;align=left;verticalAlign=middle;whiteSpace=wrap;rounded=0;" vertex="1" parent="1">
          <mxGeometry x="450" y="650" width="190" height="35" as="geometry" />
        </mxCell>
        <mxCell id="2Du9RHtdQTBFCctuUeps-7" value="&lt;ul&gt;&lt;li&gt;id&amp;nbsp;&lt;/li&gt;&lt;li&gt;destination&lt;/li&gt;&lt;li&gt;capacity&lt;/li&gt;&lt;li&gt;departureDate&lt;/li&gt;&lt;li&gt;departureTime&lt;/li&gt;&lt;/ul&gt;" style="text;html=1;strokeColor=none;fillColor=none;align=left;verticalAlign=middle;whiteSpace=wrap;rounded=0;" vertex="1" parent="1">
          <mxGeometry x="760" y="650" width="190" height="35" as="geometry" />
        </mxCell>
        <mxCell id="2Du9RHtdQTBFCctuUeps-8" value="PUT new passenger&lt;br&gt;GET all passengers&lt;br&gt;GET specific passenger&lt;br&gt;PATCH add passenger to a flight (make a Passenger DTO for this)" style="text;strokeColor=none;fillColor=none;align=left;verticalAlign=middle;spacingLeft=4;spacingRight=4;overflow=hidden;points=[[0,0.5],[1,0.5]];portConstraint=eastwest;rotatable=0;whiteSpace=wrap;html=1;" vertex="1" parent="1">
          <mxGeometry x="450" y="730" width="230" height="110" as="geometry" />
        </mxCell>
        <mxCell id="2Du9RHtdQTBFCctuUeps-9" value="PUT new flight&lt;br&gt;GET all flights&lt;br&gt;GET specific flight&lt;br&gt;DELETE a flight" style="text;strokeColor=none;fillColor=none;align=left;verticalAlign=middle;spacingLeft=4;spacingRight=4;overflow=hidden;points=[[0,0.5],[1,0.5]];portConstraint=eastwest;rotatable=0;whiteSpace=wrap;html=1;" vertex="1" parent="1">
          <mxGeometry x="765" y="730" width="230" height="110" as="geometry" />
        </mxCell>
        <mxCell id="2Du9RHtdQTBFCctuUeps-12" value="Packages" style="text;strokeColor=none;fillColor=none;html=1;fontSize=24;fontStyle=1;verticalAlign=middle;align=center;" vertex="1" parent="1">
          <mxGeometry x="-30" y="890" width="1510" height="40" as="geometry" />
        </mxCell>
        <mxCell id="2Du9RHtdQTBFCctuUeps-14" value="repositories" style="swimlane;fontStyle=0;childLayout=stackLayout;horizontal=1;startSize=30;horizontalStack=0;resizeParent=1;resizeParentMax=0;resizeLast=0;collapsible=1;marginBottom=0;whiteSpace=wrap;html=1;" vertex="1" parent="1">
          <mxGeometry x="600" y="1120" width="140" height="90" as="geometry" />
        </mxCell>
        <mxCell id="2Du9RHtdQTBFCctuUeps-15" value="PassengerRepo" style="text;strokeColor=none;fillColor=none;align=left;verticalAlign=middle;spacingLeft=4;spacingRight=4;overflow=hidden;points=[[0,0.5],[1,0.5]];portConstraint=eastwest;rotatable=0;whiteSpace=wrap;html=1;" vertex="1" parent="2Du9RHtdQTBFCctuUeps-14">
          <mxGeometry y="30" width="140" height="30" as="geometry" />
        </mxCell>
        <mxCell id="2Du9RHtdQTBFCctuUeps-16" value="FlightRepo" style="text;strokeColor=none;fillColor=none;align=left;verticalAlign=middle;spacingLeft=4;spacingRight=4;overflow=hidden;points=[[0,0.5],[1,0.5]];portConstraint=eastwest;rotatable=0;whiteSpace=wrap;html=1;" vertex="1" parent="2Du9RHtdQTBFCctuUeps-14">
          <mxGeometry y="60" width="140" height="30" as="geometry" />
        </mxCell>
        <mxCell id="2Du9RHtdQTBFCctuUeps-19" value="components" style="swimlane;fontStyle=0;childLayout=stackLayout;horizontal=1;startSize=30;horizontalStack=0;resizeParent=1;resizeParentMax=0;resizeLast=0;collapsible=1;marginBottom=0;whiteSpace=wrap;html=1;" vertex="1" parent="1">
          <mxGeometry x="250" y="950" width="140" height="60" as="geometry" />
        </mxCell>
        <mxCell id="2Du9RHtdQTBFCctuUeps-20" value="DataLoader (for testing)" style="text;strokeColor=none;fillColor=none;align=left;verticalAlign=middle;spacingLeft=4;spacingRight=4;overflow=hidden;points=[[0,0.5],[1,0.5]];portConstraint=eastwest;rotatable=0;whiteSpace=wrap;html=1;" vertex="1" parent="2Du9RHtdQTBFCctuUeps-19">
          <mxGeometry y="30" width="140" height="30" as="geometry" />
        </mxCell>
        <mxCell id="2Du9RHtdQTBFCctuUeps-22" value="models" style="swimlane;fontStyle=0;childLayout=stackLayout;horizontal=1;startSize=30;horizontalStack=0;resizeParent=1;resizeParentMax=0;resizeLast=0;collapsible=1;marginBottom=0;whiteSpace=wrap;html=1;" vertex="1" parent="1">
          <mxGeometry x="420" y="950" width="140" height="130" as="geometry" />
        </mxCell>
        <mxCell id="2Du9RHtdQTBFCctuUeps-23" value="Passenger&lt;br&gt;PassengerDTO(?)&lt;br&gt;Flight" style="text;strokeColor=none;fillColor=none;align=left;verticalAlign=middle;spacingLeft=4;spacingRight=4;overflow=hidden;points=[[0,0.5],[1,0.5]];portConstraint=eastwest;rotatable=0;whiteSpace=wrap;html=1;" vertex="1" parent="2Du9RHtdQTBFCctuUeps-22">
          <mxGeometry y="30" width="140" height="100" as="geometry" />
        </mxCell>
        <mxCell id="2Du9RHtdQTBFCctuUeps-24" value="services" style="swimlane;fontStyle=0;childLayout=stackLayout;horizontal=1;startSize=30;horizontalStack=0;resizeParent=1;resizeParentMax=0;resizeLast=0;collapsible=1;marginBottom=0;whiteSpace=wrap;html=1;" vertex="1" parent="1">
          <mxGeometry x="600" y="950" width="140" height="140" as="geometry" />
        </mxCell>
        <mxCell id="2Du9RHtdQTBFCctuUeps-25" value="PassengerService" style="text;strokeColor=none;fillColor=none;align=left;verticalAlign=middle;spacingLeft=4;spacingRight=4;overflow=hidden;points=[[0,0.5],[1,0.5]];portConstraint=eastwest;rotatable=0;whiteSpace=wrap;html=1;" vertex="1" parent="2Du9RHtdQTBFCctuUeps-24">
          <mxGeometry y="30" width="140" height="30" as="geometry" />
        </mxCell>
        <mxCell id="2Du9RHtdQTBFCctuUeps-26" value="FlightService" style="text;strokeColor=none;fillColor=none;align=left;verticalAlign=middle;spacingLeft=4;spacingRight=4;overflow=hidden;points=[[0,0.5],[1,0.5]];portConstraint=eastwest;rotatable=0;whiteSpace=wrap;html=1;" vertex="1" parent="2Du9RHtdQTBFCctuUeps-24">
          <mxGeometry y="60" width="140" height="80" as="geometry" />
        </mxCell>
        <mxCell id="2Du9RHtdQTBFCctuUeps-27" value="controllers" style="swimlane;fontStyle=0;childLayout=stackLayout;horizontal=1;startSize=30;horizontalStack=0;resizeParent=1;resizeParentMax=0;resizeLast=0;collapsible=1;marginBottom=0;whiteSpace=wrap;html=1;" vertex="1" parent="1">
          <mxGeometry x="795" y="951" width="140" height="140" as="geometry" />
        </mxCell>
        <mxCell id="2Du9RHtdQTBFCctuUeps-28" value="PassengerController" style="text;strokeColor=none;fillColor=none;align=left;verticalAlign=middle;spacingLeft=4;spacingRight=4;overflow=hidden;points=[[0,0.5],[1,0.5]];portConstraint=eastwest;rotatable=0;whiteSpace=wrap;html=1;" vertex="1" parent="2Du9RHtdQTBFCctuUeps-27">
          <mxGeometry y="30" width="140" height="30" as="geometry" />
        </mxCell>
        <mxCell id="2Du9RHtdQTBFCctuUeps-29" value="FlightController" style="text;strokeColor=none;fillColor=none;align=left;verticalAlign=middle;spacingLeft=4;spacingRight=4;overflow=hidden;points=[[0,0.5],[1,0.5]];portConstraint=eastwest;rotatable=0;whiteSpace=wrap;html=1;" vertex="1" parent="2Du9RHtdQTBFCctuUeps-27">
          <mxGeometry y="60" width="140" height="80" as="geometry" />
        </mxCell>
      </root>
    </mxGraphModel>
  </diagram>
</mxfile>
